<?xml version="1.0" encoding="iso-8859-1"?>
<!-- Generator: Adobe Illustrator 19.0.0, SVG Export Plug-In . SVG Version: 6.00 Build 0)  -->
<svg version="1.1" id="Capa_1" xmlns="http://www.w3.org/2000/svg" xmlns:xlink="http://www.w3.org/1999/xlink" x="0px" y="0px"
	 viewBox="0 0 511.88 511.88" style="enable-background:new 0 0 511.88 511.88;" xml:space="preserve">
<g>
	<g>
		<path d="M511.208,261.718l-15.996-23.994c-0.594-0.886-1.508-1.499-2.554-1.706l-117.769-23.151
			c-8.561-6.139-81.591-56.905-154.94-56.905c-69.444,0-111.942,13.067-119.995,15.773l-22.706-7.568
			c-2.113-0.695-4.362,0.434-5.057,2.527c-0.7,2.097,0.433,4.362,2.526,5.057l23.994,7.999c0.856,0.285,1.785,0.269,2.629-0.031
			c0.437-0.16,44.337-15.758,118.608-15.758c73.755,0,150.182,55.327,150.94,55.886c0.477,0.347,1.024,0.586,1.594,0.699
			l116.996,23.002l14.402,21.601v42.778c0,0.031-0.055,3.124-4.788,4.077c-6.107,1.219-33.702,3.11-47.441,3.93
			c-2.203,0.133-3.882,2.023-3.749,4.225c0.125,2.125,1.889,3.766,3.991,3.766c0.078,0,0.156,0,0.244-0.01
			c1.639-0.101,40.357-2.429,48.535-4.07c8.865-1.78,11.208-8.576,11.208-11.919v-43.989
			C511.88,263.148,511.646,262.374,511.208,261.718z"/>
	</g>
</g>
<g>
	<g>
		<path d="M79.696,182.474c-0.82-2.058-3.163-3.054-5.198-2.23c-40.291,16.117-64.324,39.873-65.328,40.877
			c-0.75,0.75-1.172,1.766-1.172,2.828v23.049L0.422,262.15C0.145,262.705,0,263.318,0,263.939v39.99
			c0,1.078,0.492,6.726,10.213,11.576c8.365,4.17,37.932,7.967,41.279,8.389c0.168,0.015,0.336,0.031,0.5,0.031
			c1.988,0,3.71-1.484,3.964-3.499c0.273-2.195-1.281-4.195-3.472-4.467c-8.709-1.093-32.641-4.586-38.702-7.608
			c-5.034-2.514-5.764-4.671-5.784-4.452v-39.014l7.577-15.153c0.276-0.555,0.421-1.168,0.421-1.789v-22.28
			c5.218-4.846,27.545-24.42,61.47-37.991C79.516,186.852,80.516,184.524,79.696,182.474z"/>
	</g>
</g>
<g>
	<g>
		<path d="M355.916,315.927H147.965c-2.21,0-3.999,1.788-3.999,3.998c0,2.211,1.789,4,3.999,4h207.951c2.211,0,3.999-1.789,3.999-4
			C359.915,317.715,358.127,315.927,355.916,315.927z"/>
	</g>
</g>
<g>
	<g>
		<path d="M259.938,235.946h-15.996c-2.21,0-3.999,1.788-3.999,3.999c0,2.21,1.789,3.999,3.999,3.999h15.996
			c2.211,0,3.999-1.789,3.999-3.999C263.937,237.734,262.149,235.946,259.938,235.946z"/>
	</g>
</g>
<g>
	<g>
		<path d="M171.96,235.946h-15.996c-2.21,0-3.999,1.788-3.999,3.999c0,2.21,1.789,3.999,3.999,3.999h15.996
			c2.21,0,3.999-1.789,3.999-3.999C175.959,237.734,174.17,235.946,171.96,235.946z"/>
	</g>
</g>
<g>
	<g>
		<path d="M355.916,211.952H163.962c-36.917,0-51.801-28.576-52.414-29.79c-1-1.968-3.386-2.769-5.37-1.773
			c-1.969,0.992-2.765,3.386-1.781,5.358c0.699,1.398,17.586,34.203,59.564,34.203h191.955c2.211,0,3.999-1.789,3.999-3.998
			C359.915,213.741,358.127,211.952,355.916,211.952z"/>
	</g>
</g>
<g>
	<g>
		<path d="M75.982,163.963c-2.211,0-3.999,1.789-3.999,3.999v7.998c0,2.211,1.788,3.999,3.999,3.999c2.21,0,4-1.789,3.999-3.999
			v-7.998C79.981,165.752,78.192,163.963,75.982,163.963z"/>
	</g>
</g>
<g>
	<g>
		<path d="M27.994,275.936H3.999c-2.21,0-3.999,1.789-3.999,3.999c0,2.211,1.789,3.999,3.999,3.999h23.995
			c2.21,0,3.999-1.788,3.999-3.999C31.993,277.725,30.204,275.936,27.994,275.936z"/>
	</g>
</g>
<g>
	<g>
		<path d="M55.701,230.462c-0.82-2.054-3.163-3.053-5.198-2.229l-39.99,15.996c-2.05,0.82-3.05,3.148-2.23,5.198
			c0.625,1.566,2.129,2.515,3.714,2.515c0.496,0,1-0.09,1.484-0.286l39.99-15.996C55.521,234.84,56.521,232.512,55.701,230.462z"/>
	</g>
</g>
<g>
	<g>
		<path d="M52.773,228.026l-39.991-7.998c-2.183-0.445-4.276,0.972-4.706,3.136c-0.434,2.167,0.972,4.272,3.136,4.706l39.991,7.998
			c0.266,0.055,0.532,0.078,0.789,0.078c1.866,0,3.538-1.313,3.917-3.214C56.342,230.564,54.937,228.459,52.773,228.026z"/>
	</g>
</g>
<g>
	<g>
		<path d="M223.869,207.167l-7.998-39.991c-0.434-2.167-2.503-3.597-4.706-3.136c-2.164,0.434-3.57,2.539-3.136,4.706l7.998,39.991
			c0.379,1.902,2.05,3.214,3.917,3.214c0.258,0,0.524-0.023,0.789-0.078C222.896,211.439,224.303,209.334,223.869,207.167z"/>
	</g>
</g>
<g>
	<g>
		<path d="M508.536,259.994l-47.988-7.998c-2.157-0.395-4.234,1.105-4.601,3.288c-0.367,2.18,1.109,4.238,3.288,4.601l47.988,7.998
			c0.219,0.039,0.445,0.055,0.664,0.055c1.914,0,3.609-1.39,3.937-3.343C512.191,262.415,510.715,260.357,508.536,259.994z"/>
	</g>
</g>
<g>
	<g>
		<path d="M461.679,252.364l-15.996-7.998c-1.968-0.977-4.374-0.184-5.365,1.788c-0.984,1.976-0.188,4.378,1.788,5.366l15.996,7.998
			c0.578,0.285,1.187,0.422,1.789,0.422c1.46,0,2.874-0.809,3.577-2.21C464.452,255.754,463.656,253.352,461.679,252.364z"/>
	</g>
</g>
<g>
	<g>
		<path d="M481.23,243.944h-37.335c-2.211,0-3.999,1.789-3.999,3.999c0,2.21,1.788,3.999,3.999,3.999h37.335
			c2.21,0,3.999-1.789,3.999-3.999C485.229,245.733,483.44,243.944,481.23,243.944z"/>
	</g>
</g>
<g>
	<g>
		<path d="M404.146,307.928h-0.086c-2.202,0-3.952,1.789-3.952,3.999c0,2.211,1.828,4,4.038,4c2.203,0,3.999-1.789,3.999-4
			C408.145,309.717,406.349,307.928,404.146,307.928z"/>
	</g>
</g>
<g>
	<g>
		<path d="M403.904,267.939c-24.252,0-43.989,19.729-43.989,43.989c0,24.26,19.737,43.99,43.989,43.99s43.99-19.73,43.99-43.99
			S428.156,267.939,403.904,267.939z M403.904,347.919c-19.846,0-35.991-16.144-35.991-35.992c0-19.846,16.144-35.991,35.991-35.991
			c19.848,0,35.992,16.145,35.992,35.991C439.896,331.774,423.752,347.919,403.904,347.919z"/>
	</g>
</g>
<g>
	<g>
		<path d="M403.904,283.934c-2.21,0-3.999,1.789-3.999,3.999v7.998c0,2.211,1.789,3.999,3.999,3.999c2.211,0,4-1.788,4-3.999v-7.998
			C407.904,285.723,406.115,283.934,403.904,283.934z"/>
	</g>
</g>
<g>
	<g>
		<path d="M403.904,323.925c-2.21,0-3.999,1.788-3.999,3.998v7.998c0,2.211,1.789,4,3.999,4c2.211,0,4-1.789,4-4v-7.998
			C407.904,325.713,406.115,323.925,403.904,323.925z"/>
	</g>
</g>
<g>
	<g>
		<path d="M387.908,307.928h-7.998c-2.21,0-3.999,1.789-3.999,3.999c0,2.211,1.789,4,3.999,4h7.998c2.211,0,3.999-1.789,3.999-4
			C391.907,309.717,390.119,307.928,387.908,307.928z"/>
	</g>
</g>
<g>
	<g>
		<path d="M427.898,307.928H419.9c-2.21,0-3.998,1.789-3.998,3.999c0,2.211,1.788,4,3.998,4h7.998c2.211,0,4-1.789,4-4
			C431.898,309.717,430.109,307.928,427.898,307.928z"/>
	</g>
</g>
<g>
	<g>
		<path d="M395.421,297.791l-5.654-5.655c-1.562-1.562-4.093-1.562-5.655,0s-1.562,4.093,0,5.655l5.655,5.654
			c0.781,0.781,1.804,1.172,2.827,1.172c1.024,0,2.046-0.391,2.827-1.172C396.983,301.884,396.983,299.353,395.421,297.791z"/>
	</g>
</g>
<g>
	<g>
		<path d="M423.697,326.065l-5.655-5.655c-1.562-1.562-4.093-1.562-5.655,0s-1.562,4.093,0,5.655l5.655,5.655
			c0.781,0.781,1.804,1.171,2.827,1.171s2.047-0.389,2.828-1.171C425.259,330.158,425.259,327.627,423.697,326.065z"/>
	</g>
</g>
<g>
	<g>
		<path d="M395.421,320.41c-1.561-1.562-4.092-1.562-5.654,0l-5.655,5.655c-1.562,1.561-1.562,4.093,0,5.655
			c0.781,0.781,1.805,1.171,2.827,1.171c1.023,0,2.047-0.389,2.828-1.171l5.654-5.655
			C396.983,324.503,396.983,321.972,395.421,320.41z"/>
	</g>
</g>
<g>
	<g>
		<path d="M423.696,292.136c-1.562-1.562-4.093-1.562-5.655,0l-5.655,5.655c-1.562,1.562-1.562,4.092,0,5.654
			c0.781,0.781,1.805,1.172,2.828,1.172s2.046-0.391,2.827-1.172l5.655-5.654C425.258,296.229,425.258,293.698,423.696,292.136z"/>
	</g>
</g>
<g>
	<g>
		<path d="M100.215,307.928h-0.078c-2.21,0-3.96,1.789-3.96,3.999c0,2.211,1.831,4,4.038,4c2.21,0,3.999-1.789,3.999-4
			C104.214,309.717,102.425,307.928,100.215,307.928z"/>
	</g>
</g>
<g>
	<g>
		<path d="M99.977,267.939c-24.252,0-43.982,19.729-43.982,43.989c0,24.26,19.73,43.99,43.982,43.99
			c24.255,0,43.989-19.73,43.989-43.99S124.233,267.939,99.977,267.939z M99.977,347.919c-19.842,0-35.983-16.144-35.983-35.992
			c0-19.846,16.14-35.991,35.983-35.991c19.846,0,35.991,16.145,35.991,35.991C135.968,331.774,119.824,347.919,99.977,347.919z"/>
	</g>
</g>
<g>
	<g>
		<path d="M99.977,283.934c-2.21,0-3.999,1.789-3.999,3.999v7.998c0,2.211,1.789,3.999,3.999,3.999c2.21,0,3.999-1.788,3.999-3.999
			v-7.998C103.976,285.723,102.187,283.934,99.977,283.934z"/>
	</g>
</g>
<g>
	<g>
		<path d="M99.977,323.925c-2.21,0-3.999,1.788-3.999,3.998v7.998c0,2.211,1.789,4,3.999,4c2.21,0,3.999-1.789,3.999-4v-7.998
			C103.976,325.713,102.187,323.925,99.977,323.925z"/>
	</g>
</g>
<g>
	<g>
		<path d="M83.981,307.928h-7.99c-2.211,0-3.999,1.789-3.999,3.999c0,2.211,1.788,4,3.999,4h7.99c2.209,0,3.999-1.789,3.999-4
			C87.98,309.717,86.191,307.928,83.981,307.928z"/>
	</g>
</g>
<g>
	<g>
		<path d="M123.971,307.928h-7.998c-2.21,0-3.999,1.789-3.999,3.999c0,2.211,1.789,4,3.999,4h7.998c2.21,0,3.999-1.789,3.999-4
			C127.97,309.717,126.181,307.928,123.971,307.928z"/>
	</g>
</g>
<g>
	<g>
		<path d="M91.494,297.791l-5.655-5.655c-1.562-1.562-4.093-1.562-5.655,0c-1.562,1.562-1.562,4.093,0,5.655l5.655,5.654
			c0.781,0.781,1.805,1.172,2.828,1.172s2.046-0.391,2.827-1.172C93.056,301.884,93.056,299.353,91.494,297.791z"/>
	</g>
</g>
<g>
	<g>
		<path d="M119.768,326.065l-5.655-5.655c-1.562-1.562-4.093-1.562-5.655,0s-1.562,4.093,0,5.655l5.655,5.655
			c0.781,0.781,1.805,1.171,2.828,1.171c1.023,0,2.046-0.389,2.827-1.171C121.33,330.158,121.33,327.627,119.768,326.065z"/>
	</g>
</g>
<g>
	<g>
		<path d="M91.495,320.41c-1.562-1.562-4.093-1.562-5.655,0l-5.655,5.655c-1.562,1.561-1.562,4.093,0,5.655
			c0.781,0.781,1.804,1.171,2.827,1.171s2.046-0.389,2.828-1.171l5.655-5.655C93.057,324.503,93.057,321.972,91.495,320.41z"/>
	</g>
</g>
<g>
	<g>
		<path d="M119.769,292.136c-1.562-1.562-4.093-1.562-5.655,0l-5.655,5.655c-1.562,1.562-1.562,4.092,0,5.654
			c0.781,0.781,1.804,1.172,2.827,1.172c1.024,0,2.047-0.391,2.828-1.172l5.655-5.654
			C121.331,296.229,121.331,293.698,119.769,292.136z"/>
	</g>
</g>
<g>
</g>
<g>
</g>
<g>
</g>
<g>
</g>
<g>
</g>
<g>
</g>
<g>
</g>
<g>
</g>
<g>
</g>
<g>
</g>
<g>
</g>
<g>
</g>
<g>
</g>
<g>
</g>
<g>
</g>
</svg>
